<?xml version="1.0" encoding="UTF-8"?>
<svg stroke="currentColor" fill="currentColor" stroke-width="0" viewBox="0 0 256 256" height="20" width="20" xmlns="http://www.w3.org/2000/svg" style="transition: none !important; animation-duration: 0s !important; animation-delay: -0.0001s; animation-play-state: paused; fill: rgb(255, 255, 255); height: 20px; stroke: rgb(255, 255, 255); stroke-width: 0px; transition-property: none; visibility: visible; width: 20px"><path d="M219.31,108.68l-80-80a16,16,0,0,0-22.62,0l-80,80A15.87,15.87,0,0,0,32,120v96a8,8,0,0,0,8,8h64a8,8,0,0,0,8-8V160h32v56a8,8,0,0,0,8,8h64a8,8,0,0,0,8-8V120A15.87,15.87,0,0,0,219.31,108.68ZM208,208H160V152a8,8,0,0,0-8-8H104a8,8,0,0,0-8,8v56H48V120l80-80,80,80Z" style="transition: none !important; animation-duration: 0s !important; animation-delay: -0.0001s; animation-play-state: paused; fill: rgb(255, 255, 255); stroke: rgb(255, 255, 255); transform-origin: 0px 0px; transition-property: none; visibility: visible"></path></svg>